<mxfile host="app.diagrams.net" modified="2024-05-15T01:22:08.734Z" agent="Mozilla/5.0 (Windows NT 10.0; Win64; x64) AppleWebKit/537.36 (KHTML, like Gecko) Chrome/124.0.0.0 Safari/537.36 Edg/124.0.0.0" etag="w7La2lzgU1EdyuzxvWfd" version="24.4.0" type="device">
  <diagram name="Page-1" id="X5QkooNSCOSBqNSPrQVA">
    <mxGraphModel dx="1826" dy="785" grid="0" gridSize="10" guides="1" tooltips="1" connect="1" arrows="1" fold="1" page="0" pageScale="1" pageWidth="850" pageHeight="1100" math="0" shadow="0">
      <root>
        <mxCell id="0" />
        <mxCell id="1" parent="0" />
        <mxCell id="7zTIbrZULdJSPQ-6bftT-1" value="Animal" style="swimlane;fontStyle=0;childLayout=stackLayout;horizontal=1;startSize=26;fillColor=none;horizontalStack=0;resizeParent=1;resizeParentMax=0;resizeLast=0;collapsible=0;marginBottom=0;whiteSpace=wrap;html=1;fontFamily=Helvetica;fontSize=12;" parent="1" vertex="1">
          <mxGeometry x="-80" y="80" width="140" height="78" as="geometry" />
        </mxCell>
        <mxCell id="7zTIbrZULdJSPQ-6bftT-2" value="+ Id: int" style="text;strokeColor=none;fillColor=none;align=left;verticalAlign=top;spacingLeft=4;spacingRight=4;overflow=hidden;rotatable=0;points=[[0,0.5],[1,0.5]];portConstraint=eastwest;whiteSpace=wrap;html=1;fontFamily=Helvetica;fontSize=12;" parent="7zTIbrZULdJSPQ-6bftT-1" vertex="1">
          <mxGeometry y="26" width="140" height="26" as="geometry" />
        </mxCell>
        <mxCell id="7zTIbrZULdJSPQ-6bftT-3" value="+ Name: string" style="text;strokeColor=none;fillColor=none;align=left;verticalAlign=top;spacingLeft=4;spacingRight=4;overflow=hidden;rotatable=0;points=[[0,0.5],[1,0.5]];portConstraint=eastwest;whiteSpace=wrap;html=1;fontFamily=Helvetica;fontSize=12;" parent="7zTIbrZULdJSPQ-6bftT-1" vertex="1">
          <mxGeometry y="52" width="140" height="26" as="geometry" />
        </mxCell>
        <mxCell id="7zTIbrZULdJSPQ-6bftT-8" style="edgeStyle=orthogonalEdgeStyle;rounded=0;hachureGap=4;orthogonalLoop=1;jettySize=auto;html=1;exitX=0.5;exitY=0;exitDx=0;exitDy=0;entryX=0;entryY=0.5;entryDx=0;entryDy=0;fontFamily=Helvetica;fontSize=12;" parent="1" source="7zTIbrZULdJSPQ-6bftT-5" target="7zTIbrZULdJSPQ-6bftT-2" edge="1">
          <mxGeometry relative="1" as="geometry" />
        </mxCell>
        <mxCell id="7zTIbrZULdJSPQ-6bftT-5" value="Cat" style="swimlane;fontStyle=0;childLayout=stackLayout;horizontal=1;startSize=26;fillColor=none;horizontalStack=0;resizeParent=1;resizeParentMax=0;resizeLast=0;collapsible=0;marginBottom=0;whiteSpace=wrap;html=1;fontFamily=Helvetica;fontSize=12;" parent="1" vertex="1">
          <mxGeometry x="-226" y="202" width="140" height="52" as="geometry" />
        </mxCell>
        <mxCell id="7zTIbrZULdJSPQ-6bftT-6" value="+ Sound: string" style="text;strokeColor=none;fillColor=none;align=left;verticalAlign=top;spacingLeft=4;spacingRight=4;overflow=hidden;rotatable=0;points=[[0,0.5],[1,0.5]];portConstraint=eastwest;whiteSpace=wrap;html=1;fontFamily=Helvetica;fontSize=12;" parent="7zTIbrZULdJSPQ-6bftT-5" vertex="1">
          <mxGeometry y="26" width="140" height="26" as="geometry" />
        </mxCell>
        <mxCell id="7zTIbrZULdJSPQ-6bftT-11" style="edgeStyle=orthogonalEdgeStyle;rounded=0;hachureGap=4;orthogonalLoop=1;jettySize=auto;html=1;entryX=1;entryY=0.5;entryDx=0;entryDy=0;fontFamily=Helvetica;fontSize=12;" parent="1" source="7zTIbrZULdJSPQ-6bftT-9" target="7zTIbrZULdJSPQ-6bftT-1" edge="1">
          <mxGeometry relative="1" as="geometry" />
        </mxCell>
        <mxCell id="7zTIbrZULdJSPQ-6bftT-9" value="Dog" style="swimlane;fontStyle=0;childLayout=stackLayout;horizontal=1;startSize=26;fillColor=none;horizontalStack=0;resizeParent=1;resizeParentMax=0;resizeLast=0;collapsible=0;marginBottom=0;whiteSpace=wrap;html=1;fontFamily=Helvetica;fontSize=12;" parent="1" vertex="1">
          <mxGeometry x="60" y="198" width="140" height="52" as="geometry" />
        </mxCell>
        <mxCell id="7zTIbrZULdJSPQ-6bftT-10" value="+ Breed: string" style="text;strokeColor=none;fillColor=none;align=left;verticalAlign=top;spacingLeft=4;spacingRight=4;overflow=hidden;rotatable=0;points=[[0,0.5],[1,0.5]];portConstraint=eastwest;whiteSpace=wrap;html=1;fontFamily=Helvetica;fontSize=12;" parent="7zTIbrZULdJSPQ-6bftT-9" vertex="1">
          <mxGeometry y="26" width="140" height="26" as="geometry" />
        </mxCell>
        <mxCell id="7zTIbrZULdJSPQ-6bftT-12" value="Inherits" style="text;html=1;align=center;verticalAlign=middle;resizable=0;points=[];autosize=1;strokeColor=none;fillColor=none;fontFamily=Helvetica;fontSize=12;" parent="1" vertex="1">
          <mxGeometry x="125" y="139" width="57" height="26" as="geometry" />
        </mxCell>
        <mxCell id="7zTIbrZULdJSPQ-6bftT-13" value="Inherits" style="text;html=1;align=center;verticalAlign=middle;resizable=0;points=[];autosize=1;strokeColor=none;fillColor=none;fontFamily=Helvetica;fontSize=12;" parent="1" vertex="1">
          <mxGeometry x="-209" y="139" width="57" height="26" as="geometry" />
        </mxCell>
      </root>
    </mxGraphModel>
  </diagram>
</mxfile>
